{
	"asset":{
		"generator":"Khronos glTF Blender I/O v5.2.39",
		"version":"2.0"
	},
	"scene":0,
	"scenes":[
		{
			"name":"Scene",
			"nodes":[
				0,
				1,
				2,
				3,
				4,
				5
			]
		}
	],
	"nodes":[
		{
			"mesh":0,
			"name":"arco1",
			"translation":[
				0.3400000035762787,
				0.1899999976158142,
				0
			]
		},
		{
			"mesh":1,
			"name":"arco-1",
			"translation":[
				-0.3400000035762787,
				0.1899999976158142,
				0
			]
		},
		{
			"mesh":2,
			"name":"cubierta"
		},
		{
			"mesh":3,
			"name":"travesano1",
			"translation":[
				0.3400000035762787,
				0.029999999329447746,
				0
			]
		},
		{
			"mesh":4,
			"name":"travesano-1",
			"translation":[
				-0.3400000035762787,
				0.029999999329447746,
				0
			]
		},
		{
			"mesh":5,
			"name":"union",
			"translation":[
				0,
				0.30000001192092896,
				0
			]
		}
	],
	"materials":[
		{
			"doubleSided":true,
			"name":"Metal",
			"pbrMetallicRoughness":{
				"baseColorFactor":[
					0.1599999964237213,
					0.1599999964237213,
					0.18000000715255737,
					1
				],
				"metallicFactor":0.8500000238418579,
				"roughnessFactor":0.3499999940395355
			}
		},
		{
			"doubleSided":true,
			"name":"Madera",
			"pbrMetallicRoughness":{
				"baseColorFactor":[
					0.41999998688697815,
					0.27000001072883606,
					0.1599999964237213,
					1
				],
				"metallicFactor":0,
				"roughnessFactor":0.44999998807907104
			}
		}
	],
	"meshes":[
		{
			"name":"Cylinder.002",
			"primitives":[
				{
					"attributes":{
						"POSITION":0,
						"NORMAL":1,
						"TEXCOORD_0":2
					},
					"indices":3,
					"material":0
				}
			]
		},
		{
			"name":"Cylinder.001",
			"primitives":[
				{
					"attributes":{
						"POSITION":4,
						"NORMAL":5,
						"TEXCOORD_0":6
					},
					"indices":3,
					"material":0
				}
			]
		},
		{
			"name":"Cylinder",
			"primitives":[
				{
					"attributes":{
						"POSITION":7,
						"NORMAL":8,
						"TEXCOORD_0":9
					},
					"indices":10,
					"material":1
				}
			]
		},
		{
			"name":"Cube.001",
			"primitives":[
				{
					"attributes":{
						"POSITION":11,
						"NORMAL":12,
						"TEXCOORD_0":13
					},
					"indices":14,
					"material":0
				}
			]
		},
		{
			"name":"Cube",
			"primitives":[
				{
					"attributes":{
						"POSITION":15,
						"NORMAL":16,
						"TEXCOORD_0":17
					},
					"indices":14,
					"material":0
				}
			]
		},
		{
			"name":"Cube.002",
			"primitives":[
				{
					"attributes":{
						"POSITION":18,
						"NORMAL":19,
						"TEXCOORD_0":20
					},
					"indices":14,
					"material":0
				}
			]
		}
	],
	"accessors":[
		{
			"bufferView":0,
			"componentType":5126,
			"count":116,
			"max":[
				0.015598847530782223,
				0.1899999976158142,
				0.01600000075995922
			],
			"min":[
				-0.015598847530782223,
				-0.1899999976158142,
				-0.01600000075995922
			],
			"type":"VEC3"
		},
		{
			"bufferView":1,
			"componentType":5126,
			"count":116,
			"type":"VEC3"
		},
		{
			"bufferView":2,
			"componentType":5126,
			"count":116,
			"type":"VEC2"
		},
		{
			"bufferView":3,
			"componentType":5123,
			"count":492,
			"type":"SCALAR"
		},
		{
			"bufferView":4,
			"componentType":5126,
			"count":116,
			"max":[
				0.015598847530782223,
				0.1899999976158142,
				0.01600000075995922
			],
			"min":[
				-0.015598847530782223,
				-0.1899999976158142,
				-0.01600000075995922
			],
			"type":"VEC3"
		},
		{
			"bufferView":5,
			"componentType":5126,
			"count":116,
			"type":"VEC3"
		},
		{
			"bufferView":6,
			"componentType":5126,
			"count":116,
			"type":"VEC2"
		},
		{
			"bufferView":7,
			"componentType":5126,
			"count":582,
			"max":[
				0.550000011920929,
				0.42500001192092896,
				0.3410000205039978
			],
			"min":[
				-0.550000011920929,
				0.375,
				-0.3410000205039978
			],
			"type":"VEC3"
		},
		{
			"bufferView":8,
			"componentType":5126,
			"count":582,
			"type":"VEC3"
		},
		{
			"bufferView":9,
			"componentType":5126,
			"count":582,
			"type":"VEC2"
		},
		{
			"bufferView":10,
			"componentType":5123,
			"count":2868,
			"type":"SCALAR"
		},
		{
			"bufferView":11,
			"componentType":5126,
			"count":384,
			"max":[
				0.014999999664723873,
				0.014999999664723873,
				0.2199999988079071
			],
			"min":[
				-0.014999999664723873,
				-0.014999999664723873,
				-0.2199999988079071
			],
			"type":"VEC3"
		},
		{
			"bufferView":12,
			"componentType":5126,
			"count":384,
			"type":"VEC3"
		},
		{
			"bufferView":13,
			"componentType":5126,
			"count":384,
			"type":"VEC2"
		},
		{
			"bufferView":14,
			"componentType":5123,
			"count":564,
			"type":"SCALAR"
		},
		{
			"bufferView":15,
			"componentType":5126,
			"count":384,
			"max":[
				0.014999999664723873,
				0.014999999664723873,
				0.2199999988079071
			],
			"min":[
				-0.014999999664723873,
				-0.014999999664723873,
				-0.2199999988079071
			],
			"type":"VEC3"
		},
		{
			"bufferView":16,
			"componentType":5126,
			"count":384,
			"type":"VEC3"
		},
		{
			"bufferView":17,
			"componentType":5126,
			"count":384,
			"type":"VEC2"
		},
		{
			"bufferView":18,
			"componentType":5126,
			"count":384,
			"max":[
				0.3400000035762787,
				0.014999999664723873,
				0.014999999664723873
			],
			"min":[
				-0.3400000035762787,
				-0.014999999664723873,
				-0.014999999664723873
			],
			"type":"VEC3"
		},
		{
			"bufferView":19,
			"componentType":5126,
			"count":384,
			"type":"VEC3"
		},
		{
			"bufferView":20,
			"componentType":5126,
			"count":384,
			"type":"VEC2"
		}
	],
	"bufferViews":[
		{
			"buffer":0,
			"byteLength":1392,
			"byteOffset":0,
			"target":34962
		},
		{
			"buffer":0,
			"byteLength":1392,
			"byteOffset":1392,
			"target":34962
		},
		{
			"buffer":0,
			"byteLength":928,
			"byteOffset":2784,
			"target":34962
		},
		{
			"buffer":0,
			"byteLength":984,
			"byteOffset":3712,
			"target":34963
		},
		{
			"buffer":0,
			"byteLength":1392,
			"byteOffset":4696,
			"target":34962
		},
		{
			"buffer":0,
			"byteLength":1392,
			"byteOffset":6088,
			"target":34962
		},
		{
			"buffer":0,
			"byteLength":928,
			"byteOffset":7480,
			"target":34962
		},
		{
			"buffer":0,
			"byteLength":6984,
			"byteOffset":8408,
			"target":34962
		},
		{
			"buffer":0,
			"byteLength":6984,
			"byteOffset":15392,
			"target":34962
		},
		{
			"buffer":0,
			"byteLength":4656,
			"byteOffset":22376,
			"target":34962
		},
		{
			"buffer":0,
			"byteLength":5736,
			"byteOffset":27032,
			"target":34963
		},
		{
			"buffer":0,
			"byteLength":4608,
			"byteOffset":32768,
			"target":34962
		},
		{
			"buffer":0,
			"byteLength":4608,
			"byteOffset":37376,
			"target":34962
		},
		{
			"buffer":0,
			"byteLength":3072,
			"byteOffset":41984,
			"target":34962
		},
		{
			"buffer":0,
			"byteLength":1128,
			"byteOffset":45056,
			"target":34963
		},
		{
			"buffer":0,
			"byteLength":4608,
			"byteOffset":46184,
			"target":34962
		},
		{
			"buffer":0,
			"byteLength":4608,
			"byteOffset":50792,
			"target":34962
		},
		{
			"buffer":0,
			"byteLength":3072,
			"byteOffset":55400,
			"target":34962
		},
		{
			"buffer":0,
			"byteLength":4608,
			"byteOffset":58472,
			"target":34962
		},
		{
			"buffer":0,
			"byteLength":4608,
			"byteOffset":63080,
			"target":34962
		},
		{
			"buffer":0,
			"byteLength":3072,
			"byteOffset":67688,
			"target":34962
		}
	],
	"buffers":[
		{
			"byteLength":70760,
			"uri":"mesa-centro.bin"
		}
	]
}
