{
	"asset":{
		"generator":"Khronos glTF Blender I/O v5.2.39",
		"version":"2.0"
	},
	"scene":0,
	"scenes":[
		{
			"name":"Scene",
			"nodes":[
				0,
				1,
				2,
				3,
				4,
				5,
				6,
				7
			]
		}
	],
	"nodes":[
		{
			"mesh":0,
			"name":"asiento",
			"translation":[
				0,
				0.4399999976158142,
				0
			]
		},
		{
			"mesh":1,
			"name":"brazo1",
			"translation":[
				0.3100000023841858,
				0.6000000238418579,
				-0.019999999552965164
			]
		},
		{
			"mesh":2,
			"name":"brazo-1",
			"translation":[
				-0.3100000023841858,
				0.6000000238418579,
				-0.019999999552965164
			]
		},
		{
			"mesh":3,
			"name":"Cylinder",
			"rotation":[
				-0.06093468517065048,
				0.003726925002411008,
				-0.06093468517065048,
				0.9962731599807739
			],
			"translation":[
				-0.2800000011920929,
				0.1899999976158142,
				0.25999999046325684
			]
		},
		{
			"mesh":4,
			"name":"Cylinder.001",
			"rotation":[
				0.06093468517065048,
				-0.003726925002411008,
				-0.06093468517065048,
				0.9962731599807739
			],
			"translation":[
				-0.2800000011920929,
				0.1899999976158142,
				-0.25999999046325684
			]
		},
		{
			"mesh":5,
			"name":"Cylinder.002",
			"rotation":[
				-0.06093468517065048,
				-0.003726925002411008,
				0.06093468517065048,
				0.9962731599807739
			],
			"translation":[
				0.2800000011920929,
				0.1899999976158142,
				0.25999999046325684
			]
		},
		{
			"mesh":6,
			"name":"Cylinder.003",
			"rotation":[
				0.06093468517065048,
				0.003726925002411008,
				0.06093468517065048,
				0.9962731599807739
			],
			"translation":[
				0.2800000011920929,
				0.1899999976158142,
				-0.25999999046325684
			]
		},
		{
			"mesh":7,
			"name":"respaldo",
			"translation":[
				0,
				0.7200000286102295,
				0.30000001192092896
			]
		}
	],
	"materials":[
		{
			"doubleSided":true,
			"name":"Tela",
			"pbrMetallicRoughness":{
				"baseColorFactor":[
					0.4399999976158142,
					0.4000000059604645,
					0.3400000035762787,
					1
				],
				"metallicFactor":0,
				"roughnessFactor":0.949999988079071
			}
		},
		{
			"doubleSided":true,
			"name":"Madera",
			"pbrMetallicRoughness":{
				"baseColorFactor":[
					0.3199999928474426,
					0.20000000298023224,
					0.11999999731779099,
					1
				],
				"metallicFactor":0,
				"roughnessFactor":0.5
			}
		}
	],
	"meshes":[
		{
			"name":"Cube",
			"primitives":[
				{
					"attributes":{
						"POSITION":0,
						"NORMAL":1,
						"TEXCOORD_0":2
					},
					"indices":3,
					"material":0
				}
			]
		},
		{
			"name":"Cube.003",
			"primitives":[
				{
					"attributes":{
						"POSITION":4,
						"NORMAL":5,
						"TEXCOORD_0":6
					},
					"indices":7,
					"material":0
				}
			]
		},
		{
			"name":"Cube.002",
			"primitives":[
				{
					"attributes":{
						"POSITION":8,
						"NORMAL":9,
						"TEXCOORD_0":10
					},
					"indices":7,
					"material":0
				}
			]
		},
		{
			"name":"Cylinder",
			"primitives":[
				{
					"attributes":{
						"POSITION":11,
						"NORMAL":12,
						"TEXCOORD_0":13
					},
					"indices":14,
					"material":1
				}
			]
		},
		{
			"name":"Cylinder.001",
			"primitives":[
				{
					"attributes":{
						"POSITION":15,
						"NORMAL":16,
						"TEXCOORD_0":17
					},
					"indices":14,
					"material":1
				}
			]
		},
		{
			"name":"Cylinder.002",
			"primitives":[
				{
					"attributes":{
						"POSITION":18,
						"NORMAL":19,
						"TEXCOORD_0":20
					},
					"indices":14,
					"material":1
				}
			]
		},
		{
			"name":"Cylinder.003",
			"primitives":[
				{
					"attributes":{
						"POSITION":21,
						"NORMAL":22,
						"TEXCOORD_0":23
					},
					"indices":14,
					"material":1
				}
			]
		},
		{
			"name":"Cube.001",
			"primitives":[
				{
					"attributes":{
						"POSITION":24,
						"NORMAL":25,
						"TEXCOORD_0":26
					},
					"indices":27,
					"material":0
				}
			]
		}
	],
	"accessors":[
		{
			"bufferView":0,
			"componentType":5126,
			"count":920,
			"max":[
				0.35961776971817017,
				0.07961775362491608,
				0.34961774945259094
			],
			"min":[
				-0.35961776971817017,
				-0.07961775362491608,
				-0.34961774945259094
			],
			"type":"VEC3"
		},
		{
			"bufferView":1,
			"componentType":5126,
			"count":920,
			"type":"VEC3"
		},
		{
			"bufferView":2,
			"componentType":5126,
			"count":920,
			"type":"VEC2"
		},
		{
			"bufferView":3,
			"componentType":5123,
			"count":3600,
			"type":"SCALAR"
		},
		{
			"bufferView":4,
			"componentType":5126,
			"count":636,
			"max":[
				0.054443683475255966,
				0.0644436776638031,
				0.30944371223449707
			],
			"min":[
				-0.054443683475255966,
				-0.0644436776638031,
				-0.30944371223449707
			],
			"type":"VEC3"
		},
		{
			"bufferView":5,
			"componentType":5126,
			"count":636,
			"type":"VEC3"
		},
		{
			"bufferView":6,
			"componentType":5126,
			"count":636,
			"type":"VEC2"
		},
		{
			"bufferView":7,
			"componentType":5123,
			"count":2304,
			"type":"SCALAR"
		},
		{
			"bufferView":8,
			"componentType":5126,
			"count":636,
			"max":[
				0.054443683475255966,
				0.0644436776638031,
				0.30944371223449707
			],
			"min":[
				-0.054443683475255966,
				-0.0644436776638031,
				-0.30944371223449707
			],
			"type":"VEC3"
		},
		{
			"bufferView":9,
			"componentType":5126,
			"count":636,
			"type":"VEC3"
		},
		{
			"bufferView":10,
			"componentType":5126,
			"count":636,
			"type":"VEC2"
		},
		{
			"bufferView":11,
			"componentType":5126,
			"count":66,
			"max":[
				0.020999999716877937,
				0.20000000298023224,
				0.020999999716877937
			],
			"min":[
				-0.020999999716877937,
				-0.20000000298023224,
				-0.020999999716877937
			],
			"type":"VEC3"
		},
		{
			"bufferView":12,
			"componentType":5126,
			"count":66,
			"type":"VEC3"
		},
		{
			"bufferView":13,
			"componentType":5126,
			"count":66,
			"type":"VEC2"
		},
		{
			"bufferView":14,
			"componentType":5123,
			"count":180,
			"type":"SCALAR"
		},
		{
			"bufferView":15,
			"componentType":5126,
			"count":66,
			"max":[
				0.020999999716877937,
				0.20000000298023224,
				0.020999999716877937
			],
			"min":[
				-0.020999999716877937,
				-0.20000000298023224,
				-0.020999999716877937
			],
			"type":"VEC3"
		},
		{
			"bufferView":16,
			"componentType":5126,
			"count":66,
			"type":"VEC3"
		},
		{
			"bufferView":17,
			"componentType":5126,
			"count":66,
			"type":"VEC2"
		},
		{
			"bufferView":18,
			"componentType":5126,
			"count":66,
			"max":[
				0.020999999716877937,
				0.20000000298023224,
				0.020999999716877937
			],
			"min":[
				-0.020999999716877937,
				-0.20000000298023224,
				-0.020999999716877937
			],
			"type":"VEC3"
		},
		{
			"bufferView":19,
			"componentType":5126,
			"count":66,
			"type":"VEC3"
		},
		{
			"bufferView":20,
			"componentType":5126,
			"count":66,
			"type":"VEC2"
		},
		{
			"bufferView":21,
			"componentType":5126,
			"count":66,
			"max":[
				0.020999999716877937,
				0.20000000298023224,
				0.020999999716877937
			],
			"min":[
				-0.020999999716877937,
				-0.20000000298023224,
				-0.020999999716877937
			],
			"type":"VEC3"
		},
		{
			"bufferView":22,
			"componentType":5126,
			"count":66,
			"type":"VEC3"
		},
		{
			"bufferView":23,
			"componentType":5126,
			"count":66,
			"type":"VEC2"
		},
		{
			"bufferView":24,
			"componentType":5126,
			"count":933,
			"max":[
				0.35955408215522766,
				0.25955405831336975,
				0.07955406606197357
			],
			"min":[
				-0.35955408215522766,
				-0.25955405831336975,
				-0.07955406606197357
			],
			"type":"VEC3"
		},
		{
			"bufferView":25,
			"componentType":5126,
			"count":933,
			"type":"VEC3"
		},
		{
			"bufferView":26,
			"componentType":5126,
			"count":933,
			"type":"VEC2"
		},
		{
			"bufferView":27,
			"componentType":5123,
			"count":3600,
			"type":"SCALAR"
		}
	],
	"bufferViews":[
		{
			"buffer":0,
			"byteLength":11040,
			"byteOffset":0,
			"target":34962
		},
		{
			"buffer":0,
			"byteLength":11040,
			"byteOffset":11040,
			"target":34962
		},
		{
			"buffer":0,
			"byteLength":7360,
			"byteOffset":22080,
			"target":34962
		},
		{
			"buffer":0,
			"byteLength":7200,
			"byteOffset":29440,
			"target":34963
		},
		{
			"buffer":0,
			"byteLength":7632,
			"byteOffset":36640,
			"target":34962
		},
		{
			"buffer":0,
			"byteLength":7632,
			"byteOffset":44272,
			"target":34962
		},
		{
			"buffer":0,
			"byteLength":5088,
			"byteOffset":51904,
			"target":34962
		},
		{
			"buffer":0,
			"byteLength":4608,
			"byteOffset":56992,
			"target":34963
		},
		{
			"buffer":0,
			"byteLength":7632,
			"byteOffset":61600,
			"target":34962
		},
		{
			"buffer":0,
			"byteLength":7632,
			"byteOffset":69232,
			"target":34962
		},
		{
			"buffer":0,
			"byteLength":5088,
			"byteOffset":76864,
			"target":34962
		},
		{
			"buffer":0,
			"byteLength":792,
			"byteOffset":81952,
			"target":34962
		},
		{
			"buffer":0,
			"byteLength":792,
			"byteOffset":82744,
			"target":34962
		},
		{
			"buffer":0,
			"byteLength":528,
			"byteOffset":83536,
			"target":34962
		},
		{
			"buffer":0,
			"byteLength":360,
			"byteOffset":84064,
			"target":34963
		},
		{
			"buffer":0,
			"byteLength":792,
			"byteOffset":84424,
			"target":34962
		},
		{
			"buffer":0,
			"byteLength":792,
			"byteOffset":85216,
			"target":34962
		},
		{
			"buffer":0,
			"byteLength":528,
			"byteOffset":86008,
			"target":34962
		},
		{
			"buffer":0,
			"byteLength":792,
			"byteOffset":86536,
			"target":34962
		},
		{
			"buffer":0,
			"byteLength":792,
			"byteOffset":87328,
			"target":34962
		},
		{
			"buffer":0,
			"byteLength":528,
			"byteOffset":88120,
			"target":34962
		},
		{
			"buffer":0,
			"byteLength":792,
			"byteOffset":88648,
			"target":34962
		},
		{
			"buffer":0,
			"byteLength":792,
			"byteOffset":89440,
			"target":34962
		},
		{
			"buffer":0,
			"byteLength":528,
			"byteOffset":90232,
			"target":34962
		},
		{
			"buffer":0,
			"byteLength":11196,
			"byteOffset":90760,
			"target":34962
		},
		{
			"buffer":0,
			"byteLength":11196,
			"byteOffset":101956,
			"target":34962
		},
		{
			"buffer":0,
			"byteLength":7464,
			"byteOffset":113152,
			"target":34962
		},
		{
			"buffer":0,
			"byteLength":7200,
			"byteOffset":120616,
			"target":34963
		}
	],
	"buffers":[
		{
			"byteLength":127816,
			"uri":"butaca.bin"
		}
	]
}
