{
	"asset":{
		"generator":"Khronos glTF Blender I/O v5.2.39",
		"version":"2.0"
	},
	"scene":0,
	"scenes":[
		{
			"name":"Scene",
			"nodes":[
				0,
				1,
				2
			]
		}
	],
	"nodes":[
		{
			"mesh":0,
			"name":"cable",
			"translation":[
				0,
				0.7099999785423279,
				0
			]
		},
		{
			"mesh":1,
			"name":"copa",
			"translation":[
				0,
				0.23499999940395355,
				0
			]
		},
		{
			"mesh":2,
			"name":"cupula",
			"translation":[
				0,
				0.20000000298023224,
				0
			]
		}
	],
	"materials":[
		{
			"doubleSided":true,
			"name":"Laton",
			"pbrMetallicRoughness":{
				"baseColorFactor":[
					0.7400000095367432,
					0.5600000023841858,
					0.3199999928474426,
					1
				],
				"metallicFactor":0.949999988079071,
				"roughnessFactor":0.25
			}
		},
		{
			"doubleSided":true,
			"name":"Esmalte",
			"pbrMetallicRoughness":{
				"baseColorFactor":[
					0.09000000357627869,
					0.07999999821186066,
					0.07000000029802322,
					1
				],
				"metallicFactor":0,
				"roughnessFactor":0.3499999940395355
			}
		}
	],
	"meshes":[
		{
			"name":"Cylinder.001",
			"primitives":[
				{
					"attributes":{
						"POSITION":0,
						"NORMAL":1,
						"TEXCOORD_0":2
					},
					"indices":3,
					"material":0
				}
			]
		},
		{
			"name":"Cylinder",
			"primitives":[
				{
					"attributes":{
						"POSITION":4,
						"NORMAL":5,
						"TEXCOORD_0":6
					},
					"indices":7,
					"material":0
				}
			]
		},
		{
			"name":"Sphere",
			"primitives":[
				{
					"attributes":{
						"POSITION":8,
						"NORMAL":9,
						"TEXCOORD_0":10
					},
					"indices":11,
					"material":1
				}
			]
		}
	],
	"accessors":[
		{
			"bufferView":0,
			"componentType":5126,
			"count":48,
			"max":[
				0.004000000189989805,
				0.44999998807907104,
				0.004000000189989805
			],
			"min":[
				-0.004000000189989805,
				-0.44999998807907104,
				-0.004000000189989805
			],
			"type":"VEC3"
		},
		{
			"bufferView":1,
			"componentType":5126,
			"count":48,
			"type":"VEC3"
		},
		{
			"bufferView":2,
			"componentType":5126,
			"count":48,
			"type":"VEC2"
		},
		{
			"bufferView":3,
			"componentType":5123,
			"count":84,
			"type":"SCALAR"
		},
		{
			"bufferView":4,
			"componentType":5126,
			"count":132,
			"max":[
				0.029999999329447746,
				0.02500000037252903,
				0.029999999329447746
			],
			"min":[
				-0.029999999329447746,
				-0.02500000037252903,
				-0.029999999329447746
			],
			"type":"VEC3"
		},
		{
			"bufferView":5,
			"componentType":5126,
			"count":132,
			"type":"VEC3"
		},
		{
			"bufferView":6,
			"componentType":5126,
			"count":132,
			"type":"VEC2"
		},
		{
			"bufferView":7,
			"componentType":5123,
			"count":564,
			"type":"SCALAR"
		},
		{
			"bufferView":8,
			"componentType":5126,
			"count":658,
			"max":[
				0.19999991357326508,
				0.20000000298023224,
				0.1999998539686203
			],
			"min":[
				-0.19999980926513672,
				-0.000784139905590564,
				-0.20000000298023224
			],
			"type":"VEC3"
		},
		{
			"bufferView":9,
			"componentType":5126,
			"count":658,
			"type":"VEC3"
		},
		{
			"bufferView":10,
			"componentType":5126,
			"count":658,
			"type":"VEC2"
		},
		{
			"bufferView":11,
			"componentType":5123,
			"count":3072,
			"type":"SCALAR"
		}
	],
	"bufferViews":[
		{
			"buffer":0,
			"byteLength":576,
			"byteOffset":0,
			"target":34962
		},
		{
			"buffer":0,
			"byteLength":576,
			"byteOffset":576,
			"target":34962
		},
		{
			"buffer":0,
			"byteLength":384,
			"byteOffset":1152,
			"target":34962
		},
		{
			"buffer":0,
			"byteLength":168,
			"byteOffset":1536,
			"target":34963
		},
		{
			"buffer":0,
			"byteLength":1584,
			"byteOffset":1704,
			"target":34962
		},
		{
			"buffer":0,
			"byteLength":1584,
			"byteOffset":3288,
			"target":34962
		},
		{
			"buffer":0,
			"byteLength":1056,
			"byteOffset":4872,
			"target":34962
		},
		{
			"buffer":0,
			"byteLength":1128,
			"byteOffset":5928,
			"target":34963
		},
		{
			"buffer":0,
			"byteLength":7896,
			"byteOffset":7056,
			"target":34962
		},
		{
			"buffer":0,
			"byteLength":7896,
			"byteOffset":14952,
			"target":34962
		},
		{
			"buffer":0,
			"byteLength":5264,
			"byteOffset":22848,
			"target":34962
		},
		{
			"buffer":0,
			"byteLength":6144,
			"byteOffset":28112,
			"target":34963
		}
	],
	"buffers":[
		{
			"byteLength":34256,
			"uri":"lampara-colgante.bin"
		}
	]
}
