{
	"asset":{
		"generator":"Khronos glTF Blender I/O v5.2.39",
		"version":"2.0"
	},
	"scene":0,
	"scenes":[
		{
			"name":"Scene",
			"nodes":[
				0,
				1,
				2,
				3,
				4,
				5,
				6,
				7,
				8,
				9,
				10,
				11,
				12,
				13
			]
		}
	],
	"nodes":[
		{
			"mesh":0,
			"name":"almohada0",
			"translation":[
				-0.5,
				0.800000011920929,
				0.23999999463558197
			]
		},
		{
			"mesh":1,
			"name":"almohada1",
			"translation":[
				0.5,
				0.800000011920929,
				0.23999999463558197
			]
		},
		{
			"mesh":2,
			"name":"base",
			"translation":[
				0,
				0.30000001192092896,
				0
			]
		},
		{
			"mesh":3,
			"name":"brazo1",
			"translation":[
				1.0499999523162842,
				0.6200000047683716,
				0
			]
		},
		{
			"mesh":4,
			"name":"brazo-1",
			"translation":[
				-1.0499999523162842,
				0.6200000047683716,
				0
			]
		},
		{
			"mesh":5,
			"name":"cojin0",
			"translation":[
				-0.6200000047683716,
				0.5299999713897705,
				-0.03999999910593033
			]
		},
		{
			"mesh":6,
			"name":"cojin1",
			"translation":[
				0,
				0.5299999713897705,
				-0.03999999910593033
			]
		},
		{
			"mesh":7,
			"name":"cojin2",
			"translation":[
				0.6200000047683716,
				0.5299999713897705,
				-0.03999999910593033
			]
		},
		{
			"mesh":8,
			"name":"faldon",
			"translation":[
				0,
				0.12999999523162842,
				0
			]
		},
		{
			"mesh":9,
			"name":"pata1-1",
			"translation":[
				0.9800000190734863,
				0.07500000298023224,
				0.3199999928474426
			]
		},
		{
			"mesh":10,
			"name":"pata11",
			"translation":[
				0.9800000190734863,
				0.07500000298023224,
				-0.3199999928474426
			]
		},
		{
			"mesh":11,
			"name":"pata-1-1",
			"translation":[
				-0.9800000190734863,
				0.07500000298023224,
				0.3199999928474426
			]
		},
		{
			"mesh":12,
			"name":"pata-11",
			"translation":[
				-0.9800000190734863,
				0.07500000298023224,
				-0.3199999928474426
			]
		},
		{
			"mesh":13,
			"name":"respaldo",
			"translation":[
				0,
				0.6299999952316284,
				0.3499999940395355
			]
		}
	],
	"materials":[
		{
			"doubleSided":true,
			"name":"Tela",
			"pbrMetallicRoughness":{
				"baseColorFactor":[
					0.20000000298023224,
					0.23000000417232513,
					0.33000001311302185,
					1
				],
				"metallicFactor":0,
				"roughnessFactor":0.949999988079071
			}
		},
		{
			"doubleSided":true,
			"name":"Madera",
			"pbrMetallicRoughness":{
				"baseColorFactor":[
					0.36000001430511475,
					0.2199999988079071,
					0.12999999523162842,
					1
				],
				"metallicFactor":0,
				"roughnessFactor":0.550000011920929
			}
		},
		{
			"doubleSided":true,
			"name":"Metal",
			"pbrMetallicRoughness":{
				"baseColorFactor":[
					0.7200000286102295,
					0.550000011920929,
					0.3400000035762787,
					1
				],
				"metallicFactor":0.8999999761581421,
				"roughnessFactor":0.2800000011920929
			}
		}
	],
	"meshes":[
		{
			"name":"Cube.007",
			"primitives":[
				{
					"attributes":{
						"POSITION":0,
						"NORMAL":1,
						"TEXCOORD_0":2
					},
					"indices":3,
					"material":0
				}
			]
		},
		{
			"name":"Cube.008",
			"primitives":[
				{
					"attributes":{
						"POSITION":4,
						"NORMAL":5,
						"TEXCOORD_0":6
					},
					"indices":3,
					"material":0
				}
			]
		},
		{
			"name":"Cube",
			"primitives":[
				{
					"attributes":{
						"POSITION":7,
						"NORMAL":8,
						"TEXCOORD_0":9
					},
					"indices":10,
					"material":0
				}
			]
		},
		{
			"name":"Cube.003",
			"primitives":[
				{
					"attributes":{
						"POSITION":11,
						"NORMAL":12,
						"TEXCOORD_0":13
					},
					"indices":14,
					"material":0
				}
			]
		},
		{
			"name":"Cube.002",
			"primitives":[
				{
					"attributes":{
						"POSITION":15,
						"NORMAL":16,
						"TEXCOORD_0":17
					},
					"indices":14,
					"material":0
				}
			]
		},
		{
			"name":"Cube.004",
			"primitives":[
				{
					"attributes":{
						"POSITION":18,
						"NORMAL":19,
						"TEXCOORD_0":20
					},
					"indices":21,
					"material":0
				}
			]
		},
		{
			"name":"Cube.005",
			"primitives":[
				{
					"attributes":{
						"POSITION":22,
						"NORMAL":23,
						"TEXCOORD_0":24
					},
					"indices":21,
					"material":0
				}
			]
		},
		{
			"name":"Cube.006",
			"primitives":[
				{
					"attributes":{
						"POSITION":25,
						"NORMAL":26,
						"TEXCOORD_0":27
					},
					"indices":21,
					"material":0
				}
			]
		},
		{
			"name":"Cube.009",
			"primitives":[
				{
					"attributes":{
						"POSITION":28,
						"NORMAL":29,
						"TEXCOORD_0":30
					},
					"indices":31,
					"material":1
				}
			]
		},
		{
			"name":"Cylinder.002",
			"primitives":[
				{
					"attributes":{
						"POSITION":32,
						"NORMAL":33,
						"TEXCOORD_0":34
					},
					"indices":35,
					"material":2
				}
			]
		},
		{
			"name":"Cylinder.003",
			"primitives":[
				{
					"attributes":{
						"POSITION":36,
						"NORMAL":37,
						"TEXCOORD_0":38
					},
					"indices":35,
					"material":2
				}
			]
		},
		{
			"name":"Cylinder",
			"primitives":[
				{
					"attributes":{
						"POSITION":39,
						"NORMAL":40,
						"TEXCOORD_0":41
					},
					"indices":35,
					"material":2
				}
			]
		},
		{
			"name":"Cylinder.001",
			"primitives":[
				{
					"attributes":{
						"POSITION":42,
						"NORMAL":43,
						"TEXCOORD_0":44
					},
					"indices":35,
					"material":2
				}
			]
		},
		{
			"name":"Cube.001",
			"primitives":[
				{
					"attributes":{
						"POSITION":45,
						"NORMAL":46,
						"TEXCOORD_0":47
					},
					"indices":48,
					"material":0
				}
			]
		}
	],
	"accessors":[
		{
			"bufferView":0,
			"componentType":5126,
			"count":638,
			"max":[
				0.21933241188526154,
				0.19933246076107025,
				0.06933241337537766
			],
			"min":[
				-0.21933241188526154,
				-0.19933246076107025,
				-0.06933241337537766
			],
			"type":"VEC3"
		},
		{
			"bufferView":1,
			"componentType":5126,
			"count":638,
			"type":"VEC3"
		},
		{
			"bufferView":2,
			"componentType":5126,
			"count":638,
			"type":"VEC2"
		},
		{
			"bufferView":3,
			"componentType":5123,
			"count":2304,
			"type":"SCALAR"
		},
		{
			"bufferView":4,
			"componentType":5126,
			"count":638,
			"max":[
				0.21933241188526154,
				0.19933246076107025,
				0.06933241337537766
			],
			"min":[
				-0.21933241188526154,
				-0.19933246076107025,
				-0.06933241337537766
			],
			"type":"VEC3"
		},
		{
			"bufferView":5,
			"componentType":5126,
			"count":638,
			"type":"VEC3"
		},
		{
			"bufferView":6,
			"componentType":5126,
			"count":638,
			"type":"VEC2"
		},
		{
			"bufferView":7,
			"componentType":5126,
			"count":600,
			"max":[
				1.149999976158142,
				0.15000000596046448,
				0.46000000834465027
			],
			"min":[
				-1.149999976158142,
				-0.15000000596046448,
				-0.46000000834465027
			],
			"type":"VEC3"
		},
		{
			"bufferView":8,
			"componentType":5126,
			"count":600,
			"type":"VEC3"
		},
		{
			"bufferView":9,
			"componentType":5126,
			"count":600,
			"type":"VEC2"
		},
		{
			"bufferView":10,
			"componentType":5123,
			"count":900,
			"type":"SCALAR"
		},
		{
			"bufferView":11,
			"componentType":5126,
			"count":902,
			"max":[
				0.09961776435375214,
				0.1496177762746811,
				0.4596177935600281
			],
			"min":[
				-0.09961776435375214,
				-0.1496177762746811,
				-0.4596177935600281
			],
			"type":"VEC3"
		},
		{
			"bufferView":12,
			"componentType":5126,
			"count":902,
			"type":"VEC3"
		},
		{
			"bufferView":13,
			"componentType":5126,
			"count":902,
			"type":"VEC2"
		},
		{
			"bufferView":14,
			"componentType":5123,
			"count":3600,
			"type":"SCALAR"
		},
		{
			"bufferView":15,
			"componentType":5126,
			"count":902,
			"max":[
				0.09961776435375214,
				0.1496177762746811,
				0.4596177935600281
			],
			"min":[
				-0.09961776435375214,
				-0.1496177762746811,
				-0.4596177935600281
			],
			"type":"VEC3"
		},
		{
			"bufferView":16,
			"componentType":5126,
			"count":902,
			"type":"VEC3"
		},
		{
			"bufferView":17,
			"componentType":5126,
			"count":902,
			"type":"VEC2"
		},
		{
			"bufferView":18,
			"componentType":5126,
			"count":894,
			"max":[
				0.29455405473709106,
				0.08455406129360199,
				0.3795540928840637
			],
			"min":[
				-0.29455405473709106,
				-0.08455406129360199,
				-0.3795540928840637
			],
			"type":"VEC3"
		},
		{
			"bufferView":19,
			"componentType":5126,
			"count":894,
			"type":"VEC3"
		},
		{
			"bufferView":20,
			"componentType":5126,
			"count":894,
			"type":"VEC2"
		},
		{
			"bufferView":21,
			"componentType":5123,
			"count":3600,
			"type":"SCALAR"
		},
		{
			"bufferView":22,
			"componentType":5126,
			"count":894,
			"max":[
				0.29455405473709106,
				0.08455406129360199,
				0.3795540928840637
			],
			"min":[
				-0.29455405473709106,
				-0.08455406129360199,
				-0.3795540928840637
			],
			"type":"VEC3"
		},
		{
			"bufferView":23,
			"componentType":5126,
			"count":894,
			"type":"VEC3"
		},
		{
			"bufferView":24,
			"componentType":5126,
			"count":894,
			"type":"VEC2"
		},
		{
			"bufferView":25,
			"componentType":5126,
			"count":894,
			"max":[
				0.29455405473709106,
				0.08455406129360199,
				0.3795540928840637
			],
			"min":[
				-0.29455405473709106,
				-0.08455406129360199,
				-0.3795540928840637
			],
			"type":"VEC3"
		},
		{
			"bufferView":26,
			"componentType":5126,
			"count":894,
			"type":"VEC3"
		},
		{
			"bufferView":27,
			"componentType":5126,
			"count":894,
			"type":"VEC2"
		},
		{
			"bufferView":28,
			"componentType":5126,
			"count":384,
			"max":[
				1.1200000047683716,
				0.02500000037252903,
				0.4300000071525574
			],
			"min":[
				-1.1200000047683716,
				-0.02500000037252903,
				-0.4300000071525574
			],
			"type":"VEC3"
		},
		{
			"bufferView":29,
			"componentType":5126,
			"count":384,
			"type":"VEC3"
		},
		{
			"bufferView":30,
			"componentType":5126,
			"count":384,
			"type":"VEC2"
		},
		{
			"bufferView":31,
			"componentType":5123,
			"count":564,
			"type":"SCALAR"
		},
		{
			"bufferView":32,
			"componentType":5126,
			"count":196,
			"max":[
				0.02199999988079071,
				0.07500000298023224,
				0.02199999988079071
			],
			"min":[
				-0.02199999988079071,
				-0.07500000298023224,
				-0.02199999988079071
			],
			"type":"VEC3"
		},
		{
			"bufferView":33,
			"componentType":5126,
			"count":196,
			"type":"VEC3"
		},
		{
			"bufferView":34,
			"componentType":5126,
			"count":196,
			"type":"VEC2"
		},
		{
			"bufferView":35,
			"componentType":5123,
			"count":852,
			"type":"SCALAR"
		},
		{
			"bufferView":36,
			"componentType":5126,
			"count":196,
			"max":[
				0.02199999988079071,
				0.07500000298023224,
				0.02199999988079071
			],
			"min":[
				-0.02199999988079071,
				-0.07500000298023224,
				-0.02199999988079071
			],
			"type":"VEC3"
		},
		{
			"bufferView":37,
			"componentType":5126,
			"count":196,
			"type":"VEC3"
		},
		{
			"bufferView":38,
			"componentType":5126,
			"count":196,
			"type":"VEC2"
		},
		{
			"bufferView":39,
			"componentType":5126,
			"count":196,
			"max":[
				0.02199999988079071,
				0.07500000298023224,
				0.02199999988079071
			],
			"min":[
				-0.02199999988079071,
				-0.07500000298023224,
				-0.02199999988079071
			],
			"type":"VEC3"
		},
		{
			"bufferView":40,
			"componentType":5126,
			"count":196,
			"type":"VEC3"
		},
		{
			"bufferView":41,
			"componentType":5126,
			"count":196,
			"type":"VEC2"
		},
		{
			"bufferView":42,
			"componentType":5126,
			"count":196,
			"max":[
				0.02199999988079071,
				0.07500000298023224,
				0.02199999988079071
			],
			"min":[
				-0.02199999988079071,
				-0.07500000298023224,
				-0.02199999988079071
			],
			"type":"VEC3"
		},
		{
			"bufferView":43,
			"componentType":5126,
			"count":196,
			"type":"VEC3"
		},
		{
			"bufferView":44,
			"componentType":5126,
			"count":196,
			"type":"VEC2"
		},
		{
			"bufferView":45,
			"componentType":5126,
			"count":904,
			"max":[
				1.149681568145752,
				0.3096814453601837,
				0.10968147963285446
			],
			"min":[
				-1.149681568145752,
				-0.3096814453601837,
				-0.10968147963285446
			],
			"type":"VEC3"
		},
		{
			"bufferView":46,
			"componentType":5126,
			"count":904,
			"type":"VEC3"
		},
		{
			"bufferView":47,
			"componentType":5126,
			"count":904,
			"type":"VEC2"
		},
		{
			"bufferView":48,
			"componentType":5123,
			"count":3600,
			"type":"SCALAR"
		}
	],
	"bufferViews":[
		{
			"buffer":0,
			"byteLength":7656,
			"byteOffset":0,
			"target":34962
		},
		{
			"buffer":0,
			"byteLength":7656,
			"byteOffset":7656,
			"target":34962
		},
		{
			"buffer":0,
			"byteLength":5104,
			"byteOffset":15312,
			"target":34962
		},
		{
			"buffer":0,
			"byteLength":4608,
			"byteOffset":20416,
			"target":34963
		},
		{
			"buffer":0,
			"byteLength":7656,
			"byteOffset":25024,
			"target":34962
		},
		{
			"buffer":0,
			"byteLength":7656,
			"byteOffset":32680,
			"target":34962
		},
		{
			"buffer":0,
			"byteLength":5104,
			"byteOffset":40336,
			"target":34962
		},
		{
			"buffer":0,
			"byteLength":7200,
			"byteOffset":45440,
			"target":34962
		},
		{
			"buffer":0,
			"byteLength":7200,
			"byteOffset":52640,
			"target":34962
		},
		{
			"buffer":0,
			"byteLength":4800,
			"byteOffset":59840,
			"target":34962
		},
		{
			"buffer":0,
			"byteLength":1800,
			"byteOffset":64640,
			"target":34963
		},
		{
			"buffer":0,
			"byteLength":10824,
			"byteOffset":66440,
			"target":34962
		},
		{
			"buffer":0,
			"byteLength":10824,
			"byteOffset":77264,
			"target":34962
		},
		{
			"buffer":0,
			"byteLength":7216,
			"byteOffset":88088,
			"target":34962
		},
		{
			"buffer":0,
			"byteLength":7200,
			"byteOffset":95304,
			"target":34963
		},
		{
			"buffer":0,
			"byteLength":10824,
			"byteOffset":102504,
			"target":34962
		},
		{
			"buffer":0,
			"byteLength":10824,
			"byteOffset":113328,
			"target":34962
		},
		{
			"buffer":0,
			"byteLength":7216,
			"byteOffset":124152,
			"target":34962
		},
		{
			"buffer":0,
			"byteLength":10728,
			"byteOffset":131368,
			"target":34962
		},
		{
			"buffer":0,
			"byteLength":10728,
			"byteOffset":142096,
			"target":34962
		},
		{
			"buffer":0,
			"byteLength":7152,
			"byteOffset":152824,
			"target":34962
		},
		{
			"buffer":0,
			"byteLength":7200,
			"byteOffset":159976,
			"target":34963
		},
		{
			"buffer":0,
			"byteLength":10728,
			"byteOffset":167176,
			"target":34962
		},
		{
			"buffer":0,
			"byteLength":10728,
			"byteOffset":177904,
			"target":34962
		},
		{
			"buffer":0,
			"byteLength":7152,
			"byteOffset":188632,
			"target":34962
		},
		{
			"buffer":0,
			"byteLength":10728,
			"byteOffset":195784,
			"target":34962
		},
		{
			"buffer":0,
			"byteLength":10728,
			"byteOffset":206512,
			"target":34962
		},
		{
			"buffer":0,
			"byteLength":7152,
			"byteOffset":217240,
			"target":34962
		},
		{
			"buffer":0,
			"byteLength":4608,
			"byteOffset":224392,
			"target":34962
		},
		{
			"buffer":0,
			"byteLength":4608,
			"byteOffset":229000,
			"target":34962
		},
		{
			"buffer":0,
			"byteLength":3072,
			"byteOffset":233608,
			"target":34962
		},
		{
			"buffer":0,
			"byteLength":1128,
			"byteOffset":236680,
			"target":34963
		},
		{
			"buffer":0,
			"byteLength":2352,
			"byteOffset":237808,
			"target":34962
		},
		{
			"buffer":0,
			"byteLength":2352,
			"byteOffset":240160,
			"target":34962
		},
		{
			"buffer":0,
			"byteLength":1568,
			"byteOffset":242512,
			"target":34962
		},
		{
			"buffer":0,
			"byteLength":1704,
			"byteOffset":244080,
			"target":34963
		},
		{
			"buffer":0,
			"byteLength":2352,
			"byteOffset":245784,
			"target":34962
		},
		{
			"buffer":0,
			"byteLength":2352,
			"byteOffset":248136,
			"target":34962
		},
		{
			"buffer":0,
			"byteLength":1568,
			"byteOffset":250488,
			"target":34962
		},
		{
			"buffer":0,
			"byteLength":2352,
			"byteOffset":252056,
			"target":34962
		},
		{
			"buffer":0,
			"byteLength":2352,
			"byteOffset":254408,
			"target":34962
		},
		{
			"buffer":0,
			"byteLength":1568,
			"byteOffset":256760,
			"target":34962
		},
		{
			"buffer":0,
			"byteLength":2352,
			"byteOffset":258328,
			"target":34962
		},
		{
			"buffer":0,
			"byteLength":2352,
			"byteOffset":260680,
			"target":34962
		},
		{
			"buffer":0,
			"byteLength":1568,
			"byteOffset":263032,
			"target":34962
		},
		{
			"buffer":0,
			"byteLength":10848,
			"byteOffset":264600,
			"target":34962
		},
		{
			"buffer":0,
			"byteLength":10848,
			"byteOffset":275448,
			"target":34962
		},
		{
			"buffer":0,
			"byteLength":7232,
			"byteOffset":286296,
			"target":34962
		},
		{
			"buffer":0,
			"byteLength":7200,
			"byteOffset":293528,
			"target":34963
		}
	],
	"buffers":[
		{
			"byteLength":300728,
			"uri":"sofa.bin"
		}
	]
}
